<svg xmlns="http://www.w3.org/2000/svg" xmlns:xlink="http://www.w3.org/1999/xlink" width="150" zoomAndPan="magnify" viewBox="0 0 112.5 37.5" height="50" preserveAspectRatio="xMidYMid meet" version="1.0"><defs><g/><clipPath id="41346d0dfd"><path d="M 0.492188 0 L 111.511719 0 L 111.511719 37.007812 L 0.492188 37.007812 Z M 0.492188 0 " clip-rule="nonzero"/></clipPath><clipPath id="07aee02478"><path d="M 7 10 L 32.265625 10 L 32.265625 35 L 7 35 Z M 7 10 " clip-rule="nonzero"/></clipPath><clipPath id="5542b7a855"><path d="M 4.195312 23 L 17 23 L 17 36 L 4.195312 36 Z M 4.195312 23 " clip-rule="nonzero"/></clipPath></defs><g clip-path="url(#41346d0dfd)"><path fill="#ffffff" d="M 0.492188 0 L 111.511719 0 L 111.511719 37.007812 L 0.492188 37.007812 Z M 0.492188 0 " fill-opacity="1" fill-rule="nonzero"/><path fill="#ffffff" d="M 0.492188 0 L 111.511719 0 L 111.511719 37.007812 L 0.492188 37.007812 Z M 0.492188 0 " fill-opacity="1" fill-rule="nonzero"/></g><path fill="#07adae" d="M 14.214844 9.125 C 14.683594 9.125 15.066406 8.742188 15.066406 8.273438 L 15.066406 6.621094 C 15.066406 4.484375 16.808594 2.742188 18.949219 2.742188 C 21.09375 2.742188 22.832031 4.484375 22.832031 6.621094 L 22.832031 8.273438 C 22.832031 8.742188 23.214844 9.125 23.6875 9.125 C 24.15625 9.125 24.539062 8.742188 24.539062 8.273438 L 24.539062 6.851562 C 24.539062 3.871094 22.300781 1.25 19.320312 1.050781 C 16.078125 0.839844 13.359375 3.417969 13.359375 6.621094 L 13.359375 8.273438 C 13.359375 8.742188 13.742188 9.125 14.214844 9.125 Z M 14.214844 9.125 " fill-opacity="1" fill-rule="nonzero"/><g clip-path="url(#07aee02478)"><path fill="#1d364e" d="M 32.15625 31.308594 L 30.28125 13.050781 C 30.128906 11.597656 28.90625 10.496094 27.449219 10.496094 L 10.453125 10.496094 C 8.992188 10.496094 7.769531 11.601562 7.621094 13.050781 L 7.148438 17.59375 C 6.835938 20.644531 9.734375 23.027344 12.664062 22.132812 L 14.253906 21.648438 C 16.0625 21.097656 18.082031 22.011719 18.792969 24.019531 C 19.039062 24.714844 19.003906 25.476562 18.785156 26.1875 L 18.082031 28.480469 C 17.113281 31.648438 19.484375 34.847656 22.792969 34.847656 L 28.960938 34.847656 C 30.867188 34.84375 32.355469 33.199219 32.15625 31.308594 Z M 32.15625 31.308594 " fill-opacity="1" fill-rule="nonzero"/></g><g clip-path="url(#5542b7a855)"><path fill="#07adae" d="M 14.855469 23.601562 L 5.660156 26.40625 C 4.324219 26.816406 4.226562 28.671875 5.519531 29.21875 L 7.710938 30.140625 C 8.871094 30.632812 9.796875 31.554688 10.289062 32.71875 L 11.210938 34.910156 C 11.757812 36.199219 13.613281 36.105469 14.023438 34.769531 L 16.828125 25.574219 C 17.203125 24.367188 16.070312 23.234375 14.855469 23.601562 Z M 14.855469 23.601562 " fill-opacity="1" fill-rule="nonzero"/></g><g fill="#ef8121" fill-opacity="0.4"><g transform="translate(33.697461, 24.429966)"><g><path d="M 3.75 0.125 C 2.675781 0.125 1.863281 -0.195312 1.3125 -0.84375 C 0.757812 -1.5 0.484375 -2.421875 0.484375 -3.609375 L 0.484375 -9.90625 C 0.484375 -11.039062 0.757812 -11.898438 1.3125 -12.484375 C 1.863281 -13.066406 2.675781 -13.359375 3.75 -13.359375 C 4.8125 -13.359375 5.617188 -13.066406 6.171875 -12.484375 C 6.734375 -11.898438 7.015625 -11.039062 7.015625 -9.90625 L 7.015625 -3.609375 C 7.015625 -2.410156 6.734375 -1.488281 6.171875 -0.84375 C 5.617188 -0.195312 4.8125 0.125 3.75 0.125 Z M 3.75 -2.3125 C 3.976562 -2.3125 4.132812 -2.410156 4.21875 -2.609375 C 4.300781 -2.816406 4.34375 -3.109375 4.34375 -3.484375 L 4.34375 -9.953125 C 4.34375 -10.242188 4.300781 -10.476562 4.21875 -10.65625 C 4.144531 -10.832031 3.992188 -10.921875 3.765625 -10.921875 C 3.316406 -10.921875 3.09375 -10.585938 3.09375 -9.921875 L 3.09375 -3.46875 C 3.09375 -3.082031 3.140625 -2.789062 3.234375 -2.59375 C 3.328125 -2.40625 3.5 -2.3125 3.75 -2.3125 Z M 3.75 -2.3125 "/></g></g></g><g fill="#ef8121" fill-opacity="0.4"><g transform="translate(41.186667, 24.429966)"><g><path d="M 0.546875 -11.28125 L 3.234375 -11.28125 L 3.234375 -9.84375 C 3.347656 -10.300781 3.539062 -10.675781 3.8125 -10.96875 C 4.09375 -11.257812 4.46875 -11.40625 4.9375 -11.40625 C 5.6875 -11.40625 6.242188 -11.171875 6.609375 -10.703125 C 6.972656 -10.234375 7.15625 -9.566406 7.15625 -8.703125 L 7.15625 0 L 4.515625 0 L 4.515625 -8.421875 C 4.515625 -8.671875 4.460938 -8.882812 4.359375 -9.0625 C 4.265625 -9.238281 4.113281 -9.328125 3.90625 -9.328125 C 3.632812 -9.328125 3.453125 -9.195312 3.359375 -8.9375 C 3.273438 -8.6875 3.234375 -8.351562 3.234375 -7.9375 L 3.234375 0 L 0.546875 0 Z M 0.546875 -11.28125 "/></g></g></g><g fill="#ef8121" fill-opacity="0.4"><g transform="translate(48.876202, 24.429966)"><g><path d="M 0.546875 0 L 0.546875 -13.3125 L 3.28125 -13.3125 L 3.28125 0 Z M 0.546875 0 "/></g></g></g><g fill="#ef8121" fill-opacity="0.4"><g transform="translate(52.697854, 24.429966)"><g><path d="M 0.53125 -12.03125 L 0.53125 -13.90625 L 3.21875 -13.90625 L 3.21875 -12.03125 Z M 0.53125 0 L 0.53125 -11.28125 L 3.21875 -11.28125 L 3.21875 0 Z M 0.53125 0 "/></g></g></g><g fill="#ef8121" fill-opacity="0.4"><g transform="translate(56.442456, 24.429966)"><g><path d="M 0.546875 -11.28125 L 3.234375 -11.28125 L 3.234375 -9.84375 C 3.347656 -10.300781 3.539062 -10.675781 3.8125 -10.96875 C 4.09375 -11.257812 4.46875 -11.40625 4.9375 -11.40625 C 5.6875 -11.40625 6.242188 -11.171875 6.609375 -10.703125 C 6.972656 -10.234375 7.15625 -9.566406 7.15625 -8.703125 L 7.15625 0 L 4.515625 0 L 4.515625 -8.421875 C 4.515625 -8.671875 4.460938 -8.882812 4.359375 -9.0625 C 4.265625 -9.238281 4.113281 -9.328125 3.90625 -9.328125 C 3.632812 -9.328125 3.453125 -9.195312 3.359375 -8.9375 C 3.273438 -8.6875 3.234375 -8.351562 3.234375 -7.9375 L 3.234375 0 L 0.546875 0 Z M 0.546875 -11.28125 "/></g></g></g><g fill="#ef8121" fill-opacity="0.4"><g transform="translate(64.131991, 24.429966)"><g><path d="M 3.703125 0.125 C 2.535156 0.125 1.703125 -0.191406 1.203125 -0.828125 C 0.703125 -1.460938 0.453125 -2.414062 0.453125 -3.6875 L 0.453125 -8.21875 C 0.453125 -9.25 0.75 -10.035156 1.34375 -10.578125 C 1.9375 -11.128906 2.769531 -11.40625 3.84375 -11.40625 C 6.007812 -11.40625 7.09375 -10.34375 7.09375 -8.21875 L 7.09375 -7.390625 C 7.09375 -6.566406 7.082031 -5.898438 7.0625 -5.390625 L 3.140625 -5.390625 L 3.140625 -3.203125 C 3.140625 -2.816406 3.179688 -2.507812 3.265625 -2.28125 C 3.347656 -2.0625 3.523438 -1.953125 3.796875 -1.953125 C 3.992188 -1.953125 4.132812 -2.015625 4.21875 -2.140625 C 4.3125 -2.265625 4.363281 -2.40625 4.375 -2.5625 C 4.394531 -2.71875 4.40625 -2.953125 4.40625 -3.265625 L 4.40625 -4.359375 L 7.09375 -4.359375 L 7.09375 -3.71875 C 7.09375 -2.394531 6.835938 -1.421875 6.328125 -0.796875 C 5.816406 -0.179688 4.941406 0.125 3.703125 0.125 Z M 4.40625 -6.734375 L 4.40625 -8.1875 C 4.40625 -8.988281 4.207031 -9.390625 3.8125 -9.390625 C 3.351562 -9.390625 3.125 -8.988281 3.125 -8.1875 L 3.125 -6.734375 Z M 4.40625 -6.734375 "/></g></g></g><g fill="#1d364e" fill-opacity="1"><g transform="translate(33.697461, 24.429966)"><g><path d="M 3.75 0.125 C 2.675781 0.125 1.863281 -0.195312 1.3125 -0.84375 C 0.757812 -1.5 0.484375 -2.421875 0.484375 -3.609375 L 0.484375 -9.90625 C 0.484375 -11.039062 0.757812 -11.898438 1.3125 -12.484375 C 1.863281 -13.066406 2.675781 -13.359375 3.75 -13.359375 C 4.8125 -13.359375 5.617188 -13.066406 6.171875 -12.484375 C 6.734375 -11.898438 7.015625 -11.039062 7.015625 -9.90625 L 7.015625 -3.609375 C 7.015625 -2.410156 6.734375 -1.488281 6.171875 -0.84375 C 5.617188 -0.195312 4.8125 0.125 3.75 0.125 Z M 3.75 -2.3125 C 3.976562 -2.3125 4.132812 -2.410156 4.21875 -2.609375 C 4.300781 -2.816406 4.34375 -3.109375 4.34375 -3.484375 L 4.34375 -9.953125 C 4.34375 -10.242188 4.300781 -10.476562 4.21875 -10.65625 C 4.144531 -10.832031 3.992188 -10.921875 3.765625 -10.921875 C 3.316406 -10.921875 3.09375 -10.585938 3.09375 -9.921875 L 3.09375 -3.46875 C 3.09375 -3.082031 3.140625 -2.789062 3.234375 -2.59375 C 3.328125 -2.40625 3.5 -2.3125 3.75 -2.3125 Z M 3.75 -2.3125 "/></g></g></g><g fill="#1d364e" fill-opacity="1"><g transform="translate(41.186667, 24.429966)"><g><path d="M 0.546875 -11.28125 L 3.234375 -11.28125 L 3.234375 -9.84375 C 3.347656 -10.300781 3.539062 -10.675781 3.8125 -10.96875 C 4.09375 -11.257812 4.46875 -11.40625 4.9375 -11.40625 C 5.6875 -11.40625 6.242188 -11.171875 6.609375 -10.703125 C 6.972656 -10.234375 7.15625 -9.566406 7.15625 -8.703125 L 7.15625 0 L 4.515625 0 L 4.515625 -8.421875 C 4.515625 -8.671875 4.460938 -8.882812 4.359375 -9.0625 C 4.265625 -9.238281 4.113281 -9.328125 3.90625 -9.328125 C 3.632812 -9.328125 3.453125 -9.195312 3.359375 -8.9375 C 3.273438 -8.6875 3.234375 -8.351562 3.234375 -7.9375 L 3.234375 0 L 0.546875 0 Z M 0.546875 -11.28125 "/></g></g></g><g fill="#1d364e" fill-opacity="1"><g transform="translate(48.876202, 24.429966)"><g><path d="M 0.546875 0 L 0.546875 -13.3125 L 3.28125 -13.3125 L 3.28125 0 Z M 0.546875 0 "/></g></g></g><g fill="#1d364e" fill-opacity="1"><g transform="translate(52.697854, 24.429966)"><g><path d="M 0.53125 -12.03125 L 0.53125 -13.90625 L 3.21875 -13.90625 L 3.21875 -12.03125 Z M 0.53125 0 L 0.53125 -11.28125 L 3.21875 -11.28125 L 3.21875 0 Z M 0.53125 0 "/></g></g></g><g fill="#1d364e" fill-opacity="1"><g transform="translate(56.442456, 24.429966)"><g><path d="M 0.546875 -11.28125 L 3.234375 -11.28125 L 3.234375 -9.84375 C 3.347656 -10.300781 3.539062 -10.675781 3.8125 -10.96875 C 4.09375 -11.257812 4.46875 -11.40625 4.9375 -11.40625 C 5.6875 -11.40625 6.242188 -11.171875 6.609375 -10.703125 C 6.972656 -10.234375 7.15625 -9.566406 7.15625 -8.703125 L 7.15625 0 L 4.515625 0 L 4.515625 -8.421875 C 4.515625 -8.671875 4.460938 -8.882812 4.359375 -9.0625 C 4.265625 -9.238281 4.113281 -9.328125 3.90625 -9.328125 C 3.632812 -9.328125 3.453125 -9.195312 3.359375 -8.9375 C 3.273438 -8.6875 3.234375 -8.351562 3.234375 -7.9375 L 3.234375 0 L 0.546875 0 Z M 0.546875 -11.28125 "/></g></g></g><g fill="#1d364e" fill-opacity="1"><g transform="translate(64.131991, 24.429966)"><g><path d="M 3.703125 0.125 C 2.535156 0.125 1.703125 -0.191406 1.203125 -0.828125 C 0.703125 -1.460938 0.453125 -2.414062 0.453125 -3.6875 L 0.453125 -8.21875 C 0.453125 -9.25 0.75 -10.035156 1.34375 -10.578125 C 1.9375 -11.128906 2.769531 -11.40625 3.84375 -11.40625 C 6.007812 -11.40625 7.09375 -10.34375 7.09375 -8.21875 L 7.09375 -7.390625 C 7.09375 -6.566406 7.082031 -5.898438 7.0625 -5.390625 L 3.140625 -5.390625 L 3.140625 -3.203125 C 3.140625 -2.816406 3.179688 -2.507812 3.265625 -2.28125 C 3.347656 -2.0625 3.523438 -1.953125 3.796875 -1.953125 C 3.992188 -1.953125 4.132812 -2.015625 4.21875 -2.140625 C 4.3125 -2.265625 4.363281 -2.40625 4.375 -2.5625 C 4.394531 -2.71875 4.40625 -2.953125 4.40625 -3.265625 L 4.40625 -4.359375 L 7.09375 -4.359375 L 7.09375 -3.71875 C 7.09375 -2.394531 6.835938 -1.421875 6.328125 -0.796875 C 5.816406 -0.179688 4.941406 0.125 3.703125 0.125 Z M 4.40625 -6.734375 L 4.40625 -8.1875 C 4.40625 -8.988281 4.207031 -9.390625 3.8125 -9.390625 C 3.351562 -9.390625 3.125 -8.988281 3.125 -8.1875 L 3.125 -6.734375 Z M 4.40625 -6.734375 "/></g></g></g><g fill="#07adae" fill-opacity="1"><g transform="translate(74.213306, 24.429966)"><g><path d="M 3.734375 0.125 C 2.523438 0.125 1.65625 -0.171875 1.125 -0.765625 C 0.59375 -1.359375 0.328125 -2.320312 0.328125 -3.65625 L 0.328125 -4.953125 L 2.921875 -4.953125 L 2.921875 -3.296875 C 2.921875 -2.640625 3.132812 -2.3125 3.5625 -2.3125 C 3.789062 -2.3125 3.953125 -2.378906 4.046875 -2.515625 C 4.140625 -2.660156 4.1875 -2.894531 4.1875 -3.21875 C 4.1875 -3.644531 4.132812 -4 4.03125 -4.28125 C 3.925781 -4.570312 3.796875 -4.8125 3.640625 -5 C 3.484375 -5.1875 3.195312 -5.484375 2.78125 -5.890625 L 1.65625 -7.03125 C 0.769531 -7.882812 0.328125 -8.835938 0.328125 -9.890625 C 0.328125 -11.015625 0.582031 -11.875 1.09375 -12.46875 C 1.613281 -13.0625 2.375 -13.359375 3.375 -13.359375 C 4.5625 -13.359375 5.414062 -13.039062 5.9375 -12.40625 C 6.46875 -11.78125 6.734375 -10.789062 6.734375 -9.4375 L 4.03125 -9.4375 L 4.015625 -10.359375 C 4.015625 -10.523438 3.96875 -10.660156 3.875 -10.765625 C 3.78125 -10.867188 3.644531 -10.921875 3.46875 -10.921875 C 3.257812 -10.921875 3.101562 -10.863281 3 -10.75 C 2.894531 -10.632812 2.84375 -10.484375 2.84375 -10.296875 C 2.84375 -9.859375 3.09375 -9.410156 3.59375 -8.953125 L 5.125 -7.46875 C 5.488281 -7.125 5.785156 -6.796875 6.015625 -6.484375 C 6.253906 -6.171875 6.445312 -5.800781 6.59375 -5.375 C 6.738281 -4.945312 6.8125 -4.4375 6.8125 -3.84375 C 6.8125 -2.539062 6.570312 -1.550781 6.09375 -0.875 C 5.613281 -0.207031 4.828125 0.125 3.734375 0.125 Z M 3.734375 0.125 "/></g></g></g><g fill="#07adae" fill-opacity="1"><g transform="translate(81.317267, 24.429966)"><g><path d="M 0.546875 -13.3125 L 3.3125 -13.3125 L 3.3125 -10.171875 C 3.601562 -10.992188 4.148438 -11.40625 4.953125 -11.40625 C 5.710938 -11.40625 6.285156 -11.160156 6.671875 -10.671875 C 7.066406 -10.191406 7.265625 -9.53125 7.265625 -8.6875 L 7.265625 0 L 4.578125 0 L 4.578125 -8.515625 C 4.578125 -8.765625 4.519531 -8.960938 4.40625 -9.109375 C 4.289062 -9.265625 4.125 -9.34375 3.90625 -9.34375 C 3.726562 -9.34375 3.582031 -9.265625 3.46875 -9.109375 C 3.363281 -8.953125 3.3125 -8.757812 3.3125 -8.53125 L 3.3125 0 L 0.546875 0 Z M 0.546875 -13.3125 "/></g></g></g><g fill="#07adae" fill-opacity="1"><g transform="translate(89.099261, 24.429966)"><g><path d="M 3.828125 0.125 C 1.578125 0.125 0.453125 -1.039062 0.453125 -3.375 L 0.453125 -7.90625 C 0.453125 -8.96875 0.75 -9.816406 1.34375 -10.453125 C 1.945312 -11.085938 2.773438 -11.40625 3.828125 -11.40625 C 4.867188 -11.40625 5.6875 -11.085938 6.28125 -10.453125 C 6.882812 -9.816406 7.1875 -8.96875 7.1875 -7.90625 L 7.1875 -3.375 C 7.1875 -1.039062 6.066406 0.125 3.828125 0.125 Z M 3.828125 -1.953125 C 4.035156 -1.953125 4.191406 -2.03125 4.296875 -2.1875 C 4.398438 -2.34375 4.453125 -2.550781 4.453125 -2.8125 L 4.453125 -8.328125 C 4.453125 -8.992188 4.242188 -9.328125 3.828125 -9.328125 C 3.398438 -9.328125 3.1875 -8.992188 3.1875 -8.328125 L 3.1875 -2.8125 C 3.1875 -2.550781 3.238281 -2.34375 3.34375 -2.1875 C 3.445312 -2.03125 3.609375 -1.953125 3.828125 -1.953125 Z M 3.828125 -1.953125 "/></g></g></g><g fill="#07adae" fill-opacity="1"><g transform="translate(96.757978, 24.429966)"><g><path d="M 0.546875 -11.28125 L 3.28125 -11.28125 L 3.28125 -10.671875 C 3.664062 -11.160156 4.207031 -11.40625 4.90625 -11.40625 C 5.769531 -11.40625 6.375 -11.109375 6.71875 -10.515625 C 7.0625 -9.929688 7.234375 -9.125 7.234375 -8.09375 L 7.234375 -3.90625 C 7.234375 -3.03125 7.179688 -2.3125 7.078125 -1.75 C 6.984375 -1.1875 6.757812 -0.734375 6.40625 -0.390625 C 6.0625 -0.046875 5.535156 0.125 4.828125 0.125 C 4.148438 0.125 3.632812 -0.0664062 3.28125 -0.453125 L 3.28125 2.25 L 0.546875 2.25 Z M 3.921875 -1.96875 C 4.171875 -1.96875 4.332031 -2.082031 4.40625 -2.3125 C 4.476562 -2.539062 4.515625 -2.867188 4.515625 -3.296875 L 4.515625 -8.09375 C 4.515625 -8.476562 4.476562 -8.773438 4.40625 -8.984375 C 4.332031 -9.191406 4.164062 -9.296875 3.90625 -9.296875 C 3.488281 -9.296875 3.28125 -8.90625 3.28125 -8.125 L 3.28125 -3.171875 C 3.28125 -2.796875 3.320312 -2.5 3.40625 -2.28125 C 3.5 -2.070312 3.671875 -1.96875 3.921875 -1.96875 Z M 3.921875 -1.96875 "/></g></g></g></svg>