<svg xmlns="http://www.w3.org/2000/svg" xmlns:xlink="http://www.w3.org/1999/xlink" width="500" zoomAndPan="magnify" viewBox="0 0 375 374.999991" height="500" preserveAspectRatio="xMidYMid meet" version="1.0"><defs><g/><clipPath id="026eaa7ad5"><path d="M 134 112 L 240.976562 112 L 240.976562 215 L 134 215 Z M 134 112 " clip-rule="nonzero"/></clipPath></defs><path fill="#07adae" d="M 164.632812 106.628906 C 166.613281 106.628906 168.222656 105.023438 168.222656 103.042969 L 168.222656 96.089844 C 168.222656 87.101562 175.542969 79.78125 184.558594 79.78125 C 193.578125 79.78125 200.898438 87.101562 200.898438 96.089844 L 200.898438 103.042969 C 200.898438 105.023438 202.507812 106.628906 204.488281 106.628906 C 206.472656 106.628906 208.078125 105.023438 208.078125 103.042969 L 208.078125 97.066406 C 208.078125 84.519531 198.660156 73.492188 186.109375 72.660156 C 172.472656 71.769531 161.042969 82.625 161.042969 96.089844 L 161.042969 103.042969 C 161.042969 105.023438 162.648438 106.628906 164.632812 106.628906 Z M 164.632812 106.628906 " fill-opacity="1" fill-rule="nonzero"/><g clip-path="url(#026eaa7ad5)"><path fill="#1d364e" d="M 240.128906 199.960938 L 232.230469 123.144531 C 231.597656 117.027344 226.457031 112.402344 220.3125 112.402344 L 148.808594 112.402344 C 142.664062 112.402344 137.523438 117.054688 136.890625 123.144531 L 134.910156 142.269531 C 133.589844 155.105469 145.792969 165.125 158.113281 161.363281 L 164.804688 159.324219 C 172.414062 157 180.914062 160.847656 183.898438 169.289062 C 184.933594 172.21875 184.789062 175.4375 183.871094 178.421875 L 180.914062 188.070312 C 176.835938 201.394531 186.800781 214.863281 200.726562 214.863281 L 226.6875 214.863281 C 234.699219 214.835938 240.960938 207.914062 240.128906 199.960938 Z M 240.128906 199.960938 " fill-opacity="1" fill-rule="nonzero"/></g><path fill="#07adae" d="M 167.332031 167.539062 L 128.648438 179.339844 C 123.019531 181.0625 122.617188 188.875 128.046875 191.171875 L 137.265625 195.050781 C 142.144531 197.117188 146.050781 200.992188 148.117188 205.902344 L 151.996094 215.121094 C 154.292969 220.550781 162.105469 220.148438 163.828125 214.519531 L 175.628906 175.835938 C 177.210938 170.753906 172.441406 165.988281 167.332031 167.539062 Z M 167.332031 167.539062 " fill-opacity="1" fill-rule="nonzero"/><g fill="#ef8121" fill-opacity="0.4"><g transform="translate(59.413459, 275.5276)"><g><path d="M 13.515625 0.4375 C 9.660156 0.4375 6.726562 -0.734375 4.71875 -3.078125 C 2.71875 -5.429688 1.71875 -8.742188 1.71875 -13.015625 L 1.71875 -35.75 C 1.71875 -39.863281 2.71875 -42.96875 4.71875 -45.0625 C 6.726562 -47.15625 9.660156 -48.203125 13.515625 -48.203125 C 17.367188 -48.203125 20.296875 -47.15625 22.296875 -45.0625 C 24.296875 -42.96875 25.296875 -39.863281 25.296875 -35.75 L 25.296875 -13.015625 C 25.296875 -8.710938 24.296875 -5.394531 22.296875 -3.0625 C 20.296875 -0.726562 17.367188 0.4375 13.515625 0.4375 Z M 13.515625 -8.34375 C 14.359375 -8.34375 14.925781 -8.710938 15.21875 -9.453125 C 15.519531 -10.191406 15.671875 -11.226562 15.671875 -12.5625 L 15.671875 -35.90625 C 15.671875 -36.945312 15.53125 -37.789062 15.25 -38.4375 C 14.976562 -39.09375 14.414062 -39.421875 13.5625 -39.421875 C 11.96875 -39.421875 11.171875 -38.210938 11.171875 -35.796875 L 11.171875 -12.515625 C 11.171875 -11.140625 11.335938 -10.097656 11.671875 -9.390625 C 12.003906 -8.691406 12.617188 -8.34375 13.515625 -8.34375 Z M 13.515625 -8.34375 "/></g></g></g><g fill="#ef8121" fill-opacity="0.4"><g transform="translate(86.426297, 275.5276)"><g><path d="M 1.953125 -40.6875 L 11.671875 -40.6875 L 11.671875 -35.53125 C 12.078125 -37.195312 12.78125 -38.546875 13.78125 -39.578125 C 14.78125 -40.617188 16.117188 -41.140625 17.796875 -41.140625 C 20.535156 -41.140625 22.5625 -40.296875 23.875 -38.609375 C 25.1875 -36.921875 25.84375 -34.519531 25.84375 -31.40625 L 25.84375 0 L 16.28125 0 L 16.28125 -30.40625 C 16.28125 -31.300781 16.101562 -32.0625 15.75 -32.6875 C 15.40625 -33.320312 14.863281 -33.640625 14.125 -33.640625 C 13.125 -33.640625 12.460938 -33.179688 12.140625 -32.265625 C 11.828125 -31.359375 11.671875 -30.144531 11.671875 -28.625 L 11.671875 0 L 1.953125 0 Z M 1.953125 -40.6875 "/></g></g></g><g fill="#ef8121" fill-opacity="0.4"><g transform="translate(114.161704, 275.5276)"><g><path d="M 1.953125 0 L 1.953125 -48.03125 L 11.84375 -48.03125 L 11.84375 0 Z M 1.953125 0 "/></g></g></g><g fill="#ef8121" fill-opacity="0.4"><g transform="translate(127.946032, 275.5276)"><g><path d="M 1.890625 -43.421875 L 1.890625 -50.203125 L 11.625 -50.203125 L 11.625 -43.421875 Z M 1.890625 0 L 1.890625 -40.6875 L 11.625 -40.6875 L 11.625 0 Z M 1.890625 0 "/></g></g></g><g fill="#ef8121" fill-opacity="0.4"><g transform="translate(141.452451, 275.5276)"><g><path d="M 1.953125 -40.6875 L 11.671875 -40.6875 L 11.671875 -35.53125 C 12.078125 -37.195312 12.78125 -38.546875 13.78125 -39.578125 C 14.78125 -40.617188 16.117188 -41.140625 17.796875 -41.140625 C 20.535156 -41.140625 22.5625 -40.296875 23.875 -38.609375 C 25.1875 -36.921875 25.84375 -34.519531 25.84375 -31.40625 L 25.84375 0 L 16.28125 0 L 16.28125 -30.40625 C 16.28125 -31.300781 16.101562 -32.0625 15.75 -32.6875 C 15.40625 -33.320312 14.863281 -33.640625 14.125 -33.640625 C 13.125 -33.640625 12.460938 -33.179688 12.140625 -32.265625 C 11.828125 -31.359375 11.671875 -30.144531 11.671875 -28.625 L 11.671875 0 L 1.953125 0 Z M 1.953125 -40.6875 "/></g></g></g><g fill="#ef8121" fill-opacity="0.4"><g transform="translate(169.187858, 275.5276)"><g><path d="M 13.34375 0.4375 C 9.15625 0.4375 6.148438 -0.707031 4.328125 -3 C 2.515625 -5.300781 1.609375 -8.726562 1.609375 -13.28125 L 1.609375 -29.625 C 1.609375 -33.375 2.679688 -36.226562 4.828125 -38.1875 C 6.984375 -40.15625 9.988281 -41.140625 13.84375 -41.140625 C 21.664062 -41.140625 25.578125 -37.300781 25.578125 -29.625 L 25.578125 -26.6875 C 25.578125 -23.71875 25.539062 -21.304688 25.46875 -19.453125 L 11.34375 -19.453125 L 11.34375 -11.5625 C 11.34375 -10.15625 11.488281 -9.050781 11.78125 -8.25 C 12.082031 -7.457031 12.710938 -7.0625 13.671875 -7.0625 C 14.410156 -7.0625 14.9375 -7.28125 15.25 -7.71875 C 15.570312 -8.164062 15.757812 -8.675781 15.8125 -9.25 C 15.875 -9.832031 15.90625 -10.675781 15.90625 -11.78125 L 15.90625 -15.734375 L 25.578125 -15.734375 L 25.578125 -13.390625 C 25.578125 -8.648438 24.65625 -5.160156 22.8125 -2.921875 C 20.976562 -0.679688 17.820312 0.4375 13.34375 0.4375 Z M 15.90625 -24.296875 L 15.90625 -29.515625 C 15.90625 -32.441406 15.179688 -33.90625 13.734375 -33.90625 C 12.097656 -33.90625 11.28125 -32.441406 11.28125 -29.515625 L 11.28125 -24.296875 Z M 15.90625 -24.296875 "/></g></g></g><g fill="#1d364e" fill-opacity="1"><g transform="translate(59.413459, 275.5276)"><g><path d="M 13.515625 0.4375 C 9.660156 0.4375 6.726562 -0.734375 4.71875 -3.078125 C 2.71875 -5.429688 1.71875 -8.742188 1.71875 -13.015625 L 1.71875 -35.75 C 1.71875 -39.863281 2.71875 -42.96875 4.71875 -45.0625 C 6.726562 -47.15625 9.660156 -48.203125 13.515625 -48.203125 C 17.367188 -48.203125 20.296875 -47.15625 22.296875 -45.0625 C 24.296875 -42.96875 25.296875 -39.863281 25.296875 -35.75 L 25.296875 -13.015625 C 25.296875 -8.710938 24.296875 -5.394531 22.296875 -3.0625 C 20.296875 -0.726562 17.367188 0.4375 13.515625 0.4375 Z M 13.515625 -8.34375 C 14.359375 -8.34375 14.925781 -8.710938 15.21875 -9.453125 C 15.519531 -10.191406 15.671875 -11.226562 15.671875 -12.5625 L 15.671875 -35.90625 C 15.671875 -36.945312 15.53125 -37.789062 15.25 -38.4375 C 14.976562 -39.09375 14.414062 -39.421875 13.5625 -39.421875 C 11.96875 -39.421875 11.171875 -38.210938 11.171875 -35.796875 L 11.171875 -12.515625 C 11.171875 -11.140625 11.335938 -10.097656 11.671875 -9.390625 C 12.003906 -8.691406 12.617188 -8.34375 13.515625 -8.34375 Z M 13.515625 -8.34375 "/></g></g></g><g fill="#1d364e" fill-opacity="1"><g transform="translate(86.426297, 275.5276)"><g><path d="M 1.953125 -40.6875 L 11.671875 -40.6875 L 11.671875 -35.53125 C 12.078125 -37.195312 12.78125 -38.546875 13.78125 -39.578125 C 14.78125 -40.617188 16.117188 -41.140625 17.796875 -41.140625 C 20.535156 -41.140625 22.5625 -40.296875 23.875 -38.609375 C 25.1875 -36.921875 25.84375 -34.519531 25.84375 -31.40625 L 25.84375 0 L 16.28125 0 L 16.28125 -30.40625 C 16.28125 -31.300781 16.101562 -32.0625 15.75 -32.6875 C 15.40625 -33.320312 14.863281 -33.640625 14.125 -33.640625 C 13.125 -33.640625 12.460938 -33.179688 12.140625 -32.265625 C 11.828125 -31.359375 11.671875 -30.144531 11.671875 -28.625 L 11.671875 0 L 1.953125 0 Z M 1.953125 -40.6875 "/></g></g></g><g fill="#1d364e" fill-opacity="1"><g transform="translate(114.161704, 275.5276)"><g><path d="M 1.953125 0 L 1.953125 -48.03125 L 11.84375 -48.03125 L 11.84375 0 Z M 1.953125 0 "/></g></g></g><g fill="#1d364e" fill-opacity="1"><g transform="translate(127.946032, 275.5276)"><g><path d="M 1.890625 -43.421875 L 1.890625 -50.203125 L 11.625 -50.203125 L 11.625 -43.421875 Z M 1.890625 0 L 1.890625 -40.6875 L 11.625 -40.6875 L 11.625 0 Z M 1.890625 0 "/></g></g></g><g fill="#1d364e" fill-opacity="1"><g transform="translate(141.452451, 275.5276)"><g><path d="M 1.953125 -40.6875 L 11.671875 -40.6875 L 11.671875 -35.53125 C 12.078125 -37.195312 12.78125 -38.546875 13.78125 -39.578125 C 14.78125 -40.617188 16.117188 -41.140625 17.796875 -41.140625 C 20.535156 -41.140625 22.5625 -40.296875 23.875 -38.609375 C 25.1875 -36.921875 25.84375 -34.519531 25.84375 -31.40625 L 25.84375 0 L 16.28125 0 L 16.28125 -30.40625 C 16.28125 -31.300781 16.101562 -32.0625 15.75 -32.6875 C 15.40625 -33.320312 14.863281 -33.640625 14.125 -33.640625 C 13.125 -33.640625 12.460938 -33.179688 12.140625 -32.265625 C 11.828125 -31.359375 11.671875 -30.144531 11.671875 -28.625 L 11.671875 0 L 1.953125 0 Z M 1.953125 -40.6875 "/></g></g></g><g fill="#1d364e" fill-opacity="1"><g transform="translate(169.187858, 275.5276)"><g><path d="M 13.34375 0.4375 C 9.15625 0.4375 6.148438 -0.707031 4.328125 -3 C 2.515625 -5.300781 1.609375 -8.726562 1.609375 -13.28125 L 1.609375 -29.625 C 1.609375 -33.375 2.679688 -36.226562 4.828125 -38.1875 C 6.984375 -40.15625 9.988281 -41.140625 13.84375 -41.140625 C 21.664062 -41.140625 25.578125 -37.300781 25.578125 -29.625 L 25.578125 -26.6875 C 25.578125 -23.71875 25.539062 -21.304688 25.46875 -19.453125 L 11.34375 -19.453125 L 11.34375 -11.5625 C 11.34375 -10.15625 11.488281 -9.050781 11.78125 -8.25 C 12.082031 -7.457031 12.710938 -7.0625 13.671875 -7.0625 C 14.410156 -7.0625 14.9375 -7.28125 15.25 -7.71875 C 15.570312 -8.164062 15.757812 -8.675781 15.8125 -9.25 C 15.875 -9.832031 15.90625 -10.675781 15.90625 -11.78125 L 15.90625 -15.734375 L 25.578125 -15.734375 L 25.578125 -13.390625 C 25.578125 -8.648438 24.65625 -5.160156 22.8125 -2.921875 C 20.976562 -0.679688 17.820312 0.4375 13.34375 0.4375 Z M 15.90625 -24.296875 L 15.90625 -29.515625 C 15.90625 -32.441406 15.179688 -33.90625 13.734375 -33.90625 C 12.097656 -33.90625 11.28125 -32.441406 11.28125 -29.515625 L 11.28125 -24.296875 Z M 15.90625 -24.296875 "/></g></g></g><g fill="#07adae" fill-opacity="1"><g transform="translate(205.550163, 275.5276)"><g><path d="M 13.453125 0.4375 C 9.117188 0.4375 5.988281 -0.632812 4.0625 -2.78125 C 2.132812 -4.925781 1.171875 -8.390625 1.171875 -13.171875 L 1.171875 -17.84375 L 10.5625 -17.84375 L 10.5625 -11.890625 C 10.5625 -9.523438 11.320312 -8.34375 12.84375 -8.34375 C 13.695312 -8.34375 14.289062 -8.59375 14.625 -9.09375 C 14.957031 -9.59375 15.125 -10.4375 15.125 -11.625 C 15.125 -13.175781 14.9375 -14.460938 14.5625 -15.484375 C 14.195312 -16.503906 13.722656 -17.351562 13.140625 -18.03125 C 12.566406 -18.71875 11.539062 -19.785156 10.0625 -21.234375 L 5.953125 -25.34375 C 2.765625 -28.457031 1.171875 -31.90625 1.171875 -35.6875 C 1.171875 -39.769531 2.101562 -42.875 3.96875 -45 C 5.84375 -47.132812 8.578125 -48.203125 12.171875 -48.203125 C 16.472656 -48.203125 19.566406 -47.0625 21.453125 -44.78125 C 23.347656 -42.5 24.296875 -38.929688 24.296875 -34.078125 L 14.5625 -34.078125 L 14.515625 -37.359375 C 14.515625 -37.984375 14.335938 -38.484375 13.984375 -38.859375 C 13.628906 -39.234375 13.140625 -39.421875 12.515625 -39.421875 C 11.765625 -39.421875 11.203125 -39.210938 10.828125 -38.796875 C 10.460938 -38.390625 10.28125 -37.835938 10.28125 -37.140625 C 10.28125 -35.578125 11.171875 -33.960938 12.953125 -32.296875 L 18.515625 -26.96875 C 19.804688 -25.707031 20.878906 -24.507812 21.734375 -23.375 C 22.585938 -22.25 23.273438 -20.914062 23.796875 -19.375 C 24.316406 -17.832031 24.578125 -16.003906 24.578125 -13.890625 C 24.578125 -9.191406 23.710938 -5.628906 21.984375 -3.203125 C 20.265625 -0.773438 17.421875 0.4375 13.453125 0.4375 Z M 13.453125 0.4375 "/></g></g></g><g fill="#07adae" fill-opacity="1"><g transform="translate(231.17346, 275.5276)"><g><path d="M 1.953125 -48.03125 L 11.953125 -48.03125 L 11.953125 -36.6875 C 12.992188 -39.65625 14.976562 -41.140625 17.90625 -41.140625 C 20.644531 -41.140625 22.71875 -40.265625 24.125 -38.515625 C 25.53125 -36.773438 26.234375 -34.390625 26.234375 -31.359375 L 26.234375 0 L 16.515625 0 L 16.515625 -30.75 C 16.515625 -31.632812 16.304688 -32.351562 15.890625 -32.90625 C 15.484375 -33.46875 14.894531 -33.75 14.125 -33.75 C 13.457031 -33.75 12.925781 -33.457031 12.53125 -32.875 C 12.144531 -32.300781 11.953125 -31.609375 11.953125 -30.796875 L 11.953125 0 L 1.953125 0 Z M 1.953125 -48.03125 "/></g></g></g><g fill="#07adae" fill-opacity="1"><g transform="translate(259.242359, 275.5276)"><g><path d="M 13.78125 0.4375 C 5.664062 0.4375 1.609375 -3.765625 1.609375 -12.171875 L 1.609375 -28.515625 C 1.609375 -32.367188 2.691406 -35.4375 4.859375 -37.71875 C 7.023438 -40 10 -41.140625 13.78125 -41.140625 C 17.5625 -41.140625 20.535156 -40 22.703125 -37.71875 C 24.878906 -35.4375 25.96875 -32.367188 25.96875 -28.515625 L 25.96875 -12.171875 C 25.96875 -3.765625 21.90625 0.4375 13.78125 0.4375 Z M 13.78125 -7.0625 C 14.5625 -7.0625 15.132812 -7.335938 15.5 -7.890625 C 15.875 -8.453125 16.0625 -9.210938 16.0625 -10.171875 L 16.0625 -30.078125 C 16.0625 -32.453125 15.300781 -33.640625 13.78125 -33.640625 C 12.269531 -33.640625 11.515625 -32.453125 11.515625 -30.078125 L 11.515625 -10.171875 C 11.515625 -9.210938 11.695312 -8.453125 12.0625 -7.890625 C 12.4375 -7.335938 13.007812 -7.0625 13.78125 -7.0625 Z M 13.78125 -7.0625 "/></g></g></g><g fill="#07adae" fill-opacity="1"><g transform="translate(286.866609, 275.5276)"><g><path d="M 1.953125 -40.6875 L 11.84375 -40.6875 L 11.84375 -38.53125 C 13.25 -40.269531 15.191406 -41.140625 17.671875 -41.140625 C 20.828125 -41.140625 23.023438 -40.082031 24.265625 -37.96875 C 25.503906 -35.851562 26.125 -32.925781 26.125 -29.1875 L 26.125 -14.125 C 26.125 -10.9375 25.9375 -8.332031 25.5625 -6.3125 C 25.195312 -4.289062 24.382812 -2.660156 23.125 -1.421875 C 21.863281 -0.179688 19.957031 0.4375 17.40625 0.4375 C 14.957031 0.4375 13.101562 -0.242188 11.84375 -1.609375 L 11.84375 8.109375 L 1.953125 8.109375 Z M 14.171875 -7.109375 C 15.066406 -7.109375 15.640625 -7.515625 15.890625 -8.328125 C 16.148438 -9.148438 16.28125 -10.335938 16.28125 -11.890625 L 16.28125 -29.1875 C 16.28125 -30.59375 16.148438 -31.664062 15.890625 -32.40625 C 15.640625 -33.144531 15.050781 -33.515625 14.125 -33.515625 C 12.601562 -33.515625 11.84375 -32.109375 11.84375 -29.296875 L 11.84375 -11.453125 C 11.84375 -10.078125 12 -9.007812 12.3125 -8.25 C 12.625 -7.488281 13.242188 -7.109375 14.171875 -7.109375 Z M 14.171875 -7.109375 "/></g></g></g></svg>